{"title":"DJ Khaled Ft. Scarface, Jadakiss, Meek Mill, John Legend, Anthon","uid":9356075,"size":94277266,"categoryP":"video","categoryS":"music_videos","magnet":"?xt=urn:btih:49c5347640c7a1c82a1b19c346ceb2c6c9ef365c&amp;dn=DJ+Khaled+Ft.+Scarface%2C+Jadakiss%2C+Meek+Mill%2C+John+Legend%2C+Anthon&amp;tr=udp%3A%2F%2Ftracker.openbittorrent.com%3A80&amp;tr=udp%3A%2F%2Fopen.demonii.com%3A1337&amp;tr=udp%3A%2F%2Ftracker.coppersurfer.tk%3A6969&amp;tr=udp%3A%2F%2Fexodus.desync.com%3A6969","seeders":7,"leechers":2,"uploader":"Sbyky","files":1,"time":1387217539,"description":"[IMG]http://cdn.piczend.com/images/O409pTLj/1387185302_neversurrenderexplicit.jpg[/IMG]\n\nGeneral\nComplete name                            : DJ Khaled Ft. Scarface, Jadakiss, Meek Mill, John Legend, Anthony Hamilton &amp; Akon - Never Surrender [Explicit] 720p [Sbyky].mp4\nFormat                                   : MPEG-4\nFormat profile                           : Base Media\nCodec ID                                 : isom\nFile size                                : 89.9 MiB\nDuration                                 : 6mn 59s\nOverall bit rate mode                    : Variable\nOverall bit rate                         : 1 799 Kbps\nEncoded date                             : UTC 2013-11-12 23:27:26\nTagged date                              : UTC 2013-11-12 23:27:26\n\nVideo\nID                                       : 1\nFormat                                   : AVC\nFormat/Info                              : Advanced Video Codec\nFormat profile                           : &lt;a class=&quot;__cf_email__&quot; href=&quot;/cdn-cgi/l/email-protection&quot; data-cfemail=&quot;226f434b4c626e110c13&quot;&gt;[email&amp;#160;protected]&lt;/a&gt;&lt;script data-cfhash='f9e31' type=&quot;text/javascript&quot;&gt;\n/* &lt;![CDATA[ */!function(){try{var t=&quot;currentScript&quot;in document?document.currentScript:function(){for(var t=document.getElementsByTagName(&quot;script&quot;),e=t.length;e--;)if(t[e].getAttribute(&quot;data-cfhash&quot;))return t[e]}();if(t&amp;&amp;t.previousSibling){var e,r,n,i,c=t.previousSibling,a=c.getAttribute(&quot;data-cfemail&quot;);if(a){for(e=&quot;&quot;,r=parseInt(a.substr(0,2),16),n=2;a.length-n;n+=2)i=parseInt(a.substr(n,2),16)^r,e+=String.fromCharCode(i);e=document.createTextNode(e),c.parentNode.replaceChild(e,c)}t.parentNode.removeChild(t);}}catch(u){}}()/* ]]&gt; */&lt;/script&gt;\nFormat settings, CABAC                   : Yes\nFormat settings, ReFrames                : 3 frames\nCodec ID                                 : avc1\nCodec ID/Info                            : Advanced Video Coding\nDuration                                 : 6mn 59s\nBit rate                                 : 1 670 Kbps\nWidth                                    : 1 280 pixels\nHeight                                   : 720 pixels\nDisplay aspect ratio                     : 16:9\nFrame rate mode                          : Constant\nFrame rate                               : 23.976 fps\nColor space                              : YUV\nChroma subsampling                       : 4:2:0\nBit depth                                : 8 bits\nScan type                                : Progressive\nBits/(Pixel*Frame)                       : 0.076\nStream size                              : 83.5 MiB (93%)\nEncoded date                             : UTC 2013-11-12 23:27:26\nTagged date                              : UTC 2013-11-12 23:27:26\n\nAudio\nID                                       : 2\nFormat                                   : AAC\nFormat/Info                              : Advanced Audio Codec\nFormat profile                           : LC\nCodec ID                                 : 40\nDuration                                 : 6mn 59s\nBit rate mode                            : Variable\nBit rate                                 : 126 Kbps\nChannel(s)                               : 2 channels\nChannel positions                        : Front: L R\nSampling rate                            : 44.1 KHz\nCompression mode                         : Lossy\nDelay relative to video                  : 42ms\nStream size                              : 6.28 MiB (7%)\nEncoded date                             : UTC 2013-11-12 23:23:28\nTagged date                              : UTC 2013-11-12 23:23:28\n\nShared By Sbyky\n[IMG]http://cdn.piczend.com/images/X3Ag13N3/1379453786_saythanks.gif[/IMG]\n[IMG]http://cdn.piczend.com/images/gGqhX2S8/1379453780_keepseeding.gif[/IMG]","torrent":{"xt":"urn:btih:49c5347640c7a1c82a1b19c346ceb2c6c9ef365c","amp;dn":"DJ+Khaled+Ft.+Scarface%2C+Jadakiss%2C+Meek+Mill%2C+John+Legend%2C+Anthon","amp;tr":["udp%3A%2F%2Ftracker.openbittorrent.com%3A80","udp%3A%2F%2Fopen.demonii.com%3A1337","udp%3A%2F%2Ftracker.coppersurfer.tk%3A6969","udp%3A%2F%2Fexodus.desync.com%3A6969"],"infoHash":"49c5347640c7a1c82a1b19c346ceb2c6c9ef365c","infoHashBuffer":{"type":"Buffer","data":[73,197,52,118,64,199,161,200,42,27,25,195,70,206,178,198,201,239,54,92]},"announce":[],"urlList":[]}}